<svg xmlns="http://www.w3.org/2000/svg" viewBox="0 0 841.8897637795277 595.2755905511812" role="img"><rect x="0" y="0" width="841.8897637795277" height="595.2755905511812" rx="0" fill="#FFFFFF" stroke="#FFFFFF"/><rect x="0" y="0" width="10" height="595.2755905511812" rx="0" fill="#2875EA" stroke="#2875EA"/><text x="40" y="30.055" fill="#52647C" font-size="8.5" font-family="Microsoft YaHei,Arial,sans-serif" font-weight="700">REMINDER / PERSONAL LEARNING SYSTEM</text><rect x="619.8897637795277" y="17" width="182" height="23" rx="6" fill="#EAF2FF" stroke="#EAF2FF"/><text x="629.8897637795277" y="30.304000000000002" fill="#2875EA" font-size="8.8" font-family="Microsoft YaHei,Arial,sans-serif" font-weight="700">阅读地图</text><text x="40" y="71.92" fill="#16233D" font-size="24" font-family="Microsoft YaHei,Arial,sans-serif" font-weight="700">先看框图，再照终端动手</text><text x="40" y="95.549" fill="#52647C" font-size="10.3" font-family="Microsoft YaHei,Arial,sans-serif" font-weight="400">颜色代表运行环境；状态标记代表实际完成程度。不要把位置、权限和成功状态混在一起。</text><rect x="40" y="562.2755905511812" width="761.8897637795277" height="1" rx="0" fill="#DCE5F0" stroke="#DCE5F0"/><text x="40" y="576.6665905511811" fill="#52647C" font-size="7.7" font-family="Microsoft YaHei,Arial,sans-serif" font-weight="400">核验基线 2026-10-05 14:07 CST | 实线=已有路径；虚线=待打通 / 建议配置</text><text x="755.8897637795277" y="577.3305905511811" fill="#16233D" font-size="8.5" font-family="Microsoft YaHei,Arial,sans-serif" font-weight="700">03 / 36</text><rect x="40" y="132" width="410" height="30" rx="6" fill="#16233D" stroke="#16233D"/><text x="51" y="148.885" fill="#FFFFFF" font-size="9.5" font-family="Microsoft YaHei,Arial,sans-serif" font-weight="700">页码</text><text x="128" y="148.885" fill="#FFFFFF" font-size="9.5" font-family="Microsoft YaHei,Arial,sans-serif" font-weight="700">阅读目标</text><rect x="40" y="162" width="410" height="33.5" rx="0" fill="#FFFFFF" stroke="#FFFFFF"/><text x="51" y="179.13" fill="#16233D" font-size="11" font-family="Microsoft YaHei,Arial,sans-serif" font-weight="400">04–10</text><text x="128" y="179.13" fill="#16233D" font-size="11" font-family="Microsoft YaHei,Arial,sans-serif" font-weight="400">看清架构、来源、权限、分类与调度</text><rect x="40" y="195.5" width="410" height="33.5" rx="0" fill="#EDF2FA" stroke="#EDF2FA"/><text x="51" y="212.63" fill="#16233D" font-size="11" font-family="Microsoft YaHei,Arial,sans-serif" font-weight="400">11–17</text><text x="128" y="212.63" fill="#16233D" font-size="11" font-family="Microsoft YaHei,Arial,sans-serif" font-weight="400">看清 skill、实验、回迁、知识网与复习</text><rect x="40" y="229.0" width="410" height="33.5" rx="0" fill="#FFFFFF" stroke="#FFFFFF"/><text x="51" y="246.13" fill="#16233D" font-size="11" font-family="Microsoft YaHei,Arial,sans-serif" font-weight="400">18–27</text><text x="128" y="246.13" fill="#16233D" font-size="11" font-family="Microsoft YaHei,Arial,sans-serif" font-weight="400">从零准备各终端并完成一次私有备份</text><rect x="40" y="262.5" width="410" height="33.5" rx="0" fill="#EDF2FA" stroke="#EDF2FA"/><text x="51" y="279.63" fill="#16233D" font-size="11" font-family="Microsoft YaHei,Arial,sans-serif" font-weight="400">28–32</text><text x="128" y="279.63" fill="#16233D" font-size="11" font-family="Microsoft YaHei,Arial,sans-serif" font-weight="400">验收、入库、Git、复习与系统联调</text><rect x="40" y="296.0" width="410" height="33.5" rx="0" fill="#FFFFFF" stroke="#FFFFFF"/><text x="51" y="313.13" fill="#16233D" font-size="11" font-family="Microsoft YaHei,Arial,sans-serif" font-weight="400">33–36</text><text x="128" y="313.13" fill="#16233D" font-size="11" font-family="Microsoft YaHei,Arial,sans-serif" font-weight="400">工具、故障、演进路线和依据</text><rect x="483" y="136" width="318" height="23" rx="6" fill="#E6F8F3" stroke="#E6F8F3"/><text x="493" y="149.304" fill="#009F8B" font-size="8.8" font-family="Microsoft YaHei,Arial,sans-serif" font-weight="700">手机：记录与本人确认</text><rect x="483" y="181" width="318" height="23" rx="6" fill="#FFF0E4" stroke="#FFF0E4"/><text x="493" y="194.304" fill="#F07822" font-size="8.8" font-family="Microsoft YaHei,Arial,sans-serif" font-weight="700">阿里云：数据与权限服务</text><rect x="483" y="226" width="318" height="23" rx="6" fill="#F0EAFF" stroke="#F0EAFF"/><text x="493" y="239.304" fill="#764FE3" font-size="8.8" font-family="Microsoft YaHei,Arial,sans-serif" font-weight="700">Dot 云端：分析与实验</text><rect x="483" y="271" width="318" height="23" rx="6" fill="#EAF2FF" stroke="#EAF2FF"/><text x="493" y="284.304" fill="#2875EA" font-size="8.8" font-family="Microsoft YaHei,Arial,sans-serif" font-weight="700">Windows：备份与知识协调</text><rect x="483" y="316" width="318" height="23" rx="6" fill="#FDECEF" stroke="#FDECEF"/><text x="493" y="329.304" fill="#D74554" font-size="8.8" font-family="Microsoft YaHei,Arial,sans-serif" font-weight="700">Ubuntu 本地：网站运维</text><rect x="483" y="361" width="318" height="23" rx="6" fill="#E7F6EF" stroke="#E7F6EF"/><text x="493" y="374.304" fill="#087B68" font-size="8.8" font-family="Microsoft YaHei,Arial,sans-serif" font-weight="700">Obsidian / 知识网络</text><rect x="40" y="459" width="761.8897637795277" height="66" rx="8" fill="#FFF4D8" stroke="#FFF4D8"/><text x="54" y="478.632" fill="#A66700" font-size="10.4" font-family="Microsoft YaHei,Arial,sans-serif" font-weight="700">三种读者路线</text><text x="54" y="495.885" fill="#16233D" font-size="9.5" font-family="Microsoft YaHei,Arial,sans-serif" font-weight="400">只体验：第 6、15、16、30 页。接入已有网站：从第 23 页开始。自建独立实例：从第 18 页开始；需要私有网站源码权限、服务器和自己的 Dot 资格。</text></svg>